<svg xmlns="http://www.w3.org/2000/svg" version="1.1" xmlns:xlink="http://www.w3.org/1999/xlink" xmlns:svgjs="http://svgjs.com/svgjs" width="512" height="512" x="0" y="0" viewBox="0 0 512 512" style="enable-background:new 0 0 512 512" xml:space="preserve" class=""><g><g xmlns="http://www.w3.org/2000/svg"><path d="m138.558 166.959v69.665c0 4.142 3.357 7.5 7.5 7.5s7.5-3.357 7.5-7.5v-30.77h63.964v88.173c0 17.636-14.347 31.983-31.982 31.983-17.636 0-31.983-14.347-31.983-31.983v-22.405c0-4.142-3.357-7.5-7.5-7.5s-7.5 3.357-7.5 7.5v22.405c0 25.906 21.076 46.982 46.982 46.982s46.981-21.076 46.981-46.982v-127.068c9.104-.036 16.5-7.45 16.5-16.562v-14.278c0-9.134-7.431-16.565-16.565-16.565h-6.417v-32.005c0-12.321-10.023-22.343-22.342-22.343h-36.312c-12.321 0-22.343 10.023-22.343 22.343v32.004h-6.417c-9.134 0-16.565 7.431-16.565 16.565v14.278c-.002 9.113 7.395 16.527 16.499 16.563zm14.999 23.896v-23.893h63.964v23.893zm6.482-103.306c0-4.05 3.295-7.344 7.344-7.344h36.312c4.05 0 7.343 3.295 7.343 7.344v32.004h-51v-32.004zm-22.982 48.569c0-.863.703-1.566 1.566-1.566h93.832c.863 0 1.566.703 1.566 1.566v14.278c0 .863-.703 1.566-1.566 1.566h-93.832c-.863 0-1.566-.703-1.566-1.566z" fill="#000000" data-original="#000000" class=""></path><path d="m270.876 174.964c-1.172 4.526.324 9.205 3.905 12.21 2.221 1.864 4.936 2.827 7.693 2.827 1.69 0 3.396-.362 5.013-1.1l31.453-14.351c1.744.76 3.528 1.473 5.308 2.121 23.081 8.4 48.012 7.226 70.202-3.311 45.07-21.399 64.663-75.03 43.373-120.691-10.107-21.673-27.89-38.249-50.075-46.675-22.978-8.726-47.93-7.901-70.26 2.322-22.334 10.226-39.26 28.569-47.66 51.648-9.851 27.068-6.214 57.509 9.718 81.531zm13.047-109.869c7.016-19.278 21.154-34.6 39.81-43.141 18.473-8.459 39.32-9.296 58.689-1.937 61.919 23.518 66.184 111.026 5.595 139.795-18.537 8.801-39.362 9.783-58.638 2.765-1.615-.588-3.233-1.239-4.81-1.935-3.642-1.608-7.812-1.582-11.439.074l-26.161 11.936 7.211-27.834c1.002-3.862.301-7.978-1.922-11.293-13.491-20.121-16.607-45.702-8.335-68.43z" fill="#000000" data-original="#000000" class=""></path><path d="m458.248 456.87v-84.813c0-4.142-3.357-7.5-7.5-7.5s-7.5 3.357-7.5 7.5v84.772h-19.998v-91.934c0-.02.003-.039.003-.058s-.003-.039-.003-.058v-53.148h19.999v25.428c0 4.142 3.357 7.5 7.5 7.5s7.5-3.357 7.5-7.5v-27.918c0-6.897-5.612-12.509-12.509-12.509h-24.98c-6.897 0-12.509 5.612-12.509 12.509v48.196h-34.809v-59.56c9.104-.036 16.5-7.45 16.5-16.562v-14.278c0-9.134-7.431-16.565-16.565-16.565h-6.417v-32.004c0-12.32-10.023-22.342-22.343-22.342h-36.312c-12.32 0-22.342 10.023-22.342 22.342v32.004h-6.417c-9.134 0-16.565 7.431-16.565 16.565v14.278c0 9.112 7.396 16.526 16.5 16.562v59.56h-175.732v-48.196c0-6.897-5.612-12.509-12.509-12.509h-24.979c-6.897 0-12.509 5.612-12.509 12.509v147.729c-14.523.775-26.099 12.832-26.099 27.544 0 15.211 12.374 27.585 27.585 27.585h307.18c4.142 0 7.5-3.357 7.5-7.5s-3.357-7.5-7.5-7.5h-307.18c-6.94 0-12.586-5.646-12.586-12.586s5.646-12.586 12.586-12.586h401.524c6.94 0 12.586 5.646 12.586 12.586s-5.646 12.586-12.586 12.586h-59.346c-4.142 0-7.5 3.357-7.5 7.5s3.357 7.5 7.5 7.5h59.346c15.211 0 27.585-12.374 27.585-27.585 0-14.712-11.576-26.768-26.099-27.544zm-49.997-84.533v84.492h-47.418c7.815-8.394 12.61-19.636 12.61-31.982v-52.511h34.808zm-113.772 52.511v-52.511h63.964v52.511c0 17.635-14.347 31.982-31.983 31.982-17.634-.001-31.981-14.347-31.981-31.982zm0-127.066h63.964v23.893h-63.964zm6.482-79.414c0-4.05 3.294-7.343 7.343-7.343h36.312c4.05 0 7.344 3.294 7.344 7.343v32.004h-51v-32.004zm-22.982 62.848v-14.278c0-.863.703-1.566 1.566-1.566h93.832c.863 0 1.566.703 1.566 1.566v14.278c0 .863-.703 1.566-1.566 1.566h-93.832c-.863.001-1.566-.702-1.566-1.566zm16.5 55.458h63.964v20.664h-63.964zm-14.999 35.663v52.511c0 12.346 4.794 23.588 12.609 31.982h-188.34v-84.492h175.731zm-190.73-60.705v53.148c0 .02-.003.039-.003.058s.003.039.003.058v91.934h-19.999v-145.198z" fill="#000000" data-original="#000000" class=""></path><path d="m378.388 101.207c-12.665 0-22.968 10.303-22.968 22.968 0 12.664 10.303 22.967 22.968 22.967 12.664 0 22.967-10.303 22.967-22.967 0-12.665-10.303-22.968-22.967-22.968zm0 30.937c-4.394 0-7.969-3.575-7.969-7.968 0-4.394 3.575-7.969 7.969-7.969 4.393 0 7.968 3.575 7.968 7.969 0 4.393-3.575 7.968-7.968 7.968z" fill="#000000" data-original="#000000" class=""></path><path d="m322.995 92.493c5.988 0 11.617-2.333 15.851-6.566l17.459-17.459c4.233-4.234 6.565-9.864 6.565-15.851 0-5.988-2.332-11.617-6.565-15.852-4.234-4.234-9.864-6.566-15.852-6.566s-11.617 2.333-15.851 6.566l-17.458 17.459c-4.234 4.234-6.567 9.863-6.567 15.851 0 5.989 2.333 11.618 6.566 15.852 4.235 4.234 9.864 6.566 15.852 6.566zm-5.245-27.662 17.459-17.46c1.4-1.4 3.263-2.173 5.244-2.173s3.845.772 5.245 2.173c1.401 1.401 2.173 3.264 2.173 5.246s-.772 3.844-2.172 5.244l-17.459 17.46c-1.4 1.4-3.263 2.173-5.244 2.173s-3.845-.772-5.246-2.174c-1.4-1.4-2.173-3.263-2.173-5.245 0-1.98.772-3.843 2.173-5.244z" fill="#000000" data-original="#000000" class=""></path><path d="m377.005 72.154c3.574 2.411 7.234 2.599 9.707 2.727.452.023 1.211.074 1.784.128.398.038.675.411.6.804-.101.529-.232 1.228-.292 1.627-.483 3.214-1.291 8.592 3.094 13.957 4.384 5.364 9.815 5.643 13.061 5.81.439.023 1.013.053 1.454.09.376.032.732.169 1.039.389 1.035.742 3.798 2.598 5.537 2.598 1.653 0 3.316-.544 4.7-1.66 3.355-2.706 3.573-7.781.732-11.022-5-5.703-12.908-5.857-14.654-5.825-.207.004-.367-.159-.359-.366.096-2.367 2.507-9.128-2.864-15.701-4.384-5.364-9.815-5.643-13.061-5.81-.47-.024-1.095-.056-1.565-.109-.332-.037-.64-.169-.919-.354-3.431-2.274-8.139-1.37-10.448 2.201-2.269 3.51-1.01 8.179 2.454 10.516z" fill="#000000" data-original="#000000" class=""></path><path d="m343.169 100.227c-3.639-1.893-8.134-.306-10.151 3.266-1.49 2.638-2.182 5.679-2.65 6.858-.084.212-.331.3-.536.2-.482-.234-1.335-.643-1.788-.836-2.987-1.276-7.99-3.411-14.283-.521-6.297 2.891-7.935 8.078-8.914 11.176-.118.372-.233.744-.362 1.111-1.113 3.18-.111 6.781 2.661 8.697 1.391.961 2.905 1.396 4.377 1.396 3.084 0 5.974-1.917 7.066-4.989.199-.561.381-1.129.561-1.697.141-.449.386-1.179.58-1.702.124-.333.498-.493.825-.354.5.211 1.206.509 1.598.677 2.989 1.274 7.987 3.411 14.286.52 8.143-3.741 8.555-11.417 9.653-13.185 2.288-3.684.997-8.578-2.923-10.617z" fill="#000000" data-original="#000000" class=""></path></g></g></svg>