<svg width="150" height="182" viewBox="0 0 150 182" fill="none" xmlns="http://www.w3.org/2000/svg">
<path d="M148.912 48.7175C148.912 48.7142 148.912 48.7078 148.909 48.7045C148.359 44.85 130.256 29.25 113.789 29.25C95.8641 29.25 79.2617 51.532 74.6107 52C70.3619 52.0163 70.378 58.5 74.6268 58.5C87.6981 58.5 103.003 18.187 137.238 45.6235C133.185 46.644 130.337 49.257 128.856 53.3C118.621 44.3917 102.15 49.426 97.6601 60.5345C96.0894 64.4767 101.98 66.9305 103.621 62.985C107.287 54.5285 121.942 50.882 128.515 63.1248C133.923 73.1835 151.294 65.182 148.912 48.7175ZM134.187 60.0438C134.29 53.9403 136.659 51.0608 142.623 51.7173C142.42 59.8813 135.732 62.8517 134.187 60.0438Z" fill="#000"/>
<path d="M110.284 64.4215C110.381 64.5353 119.96 75.868 119.96 91C119.96 123.377 94.1486 175.5 78.116 175.5C66.7184 175.5 13.1133 131.414 7.83137 96.3982C70.0627 123.126 46.7976 16.8708 104.738 16.276C107.03 16.2695 113.516 16.25 117.008 16.25C119.512 16.25 123.716 17.5175 123.716 26C123.716 30.2997 130.154 30.2997 130.154 26C130.154 14.0075 123.072 9.75 117.008 9.75C113.155 9.75 107.494 9.7695 103.882 9.77925V9.82475C89.3655 10.2017 79.2393 16.5393 71.6785 25.5125V16.3085C71.7622 11.6545 67.713 6.5 58.8035 6.5C55.0794 6.5 52.1182 7.40675 49.9069 9.139C47.8758 5.44375 42.5102 0 37.7175 0C27.1567 0 16.8696 12.5645 23.1076 21.0177C27.9518 27.5893 29.3037 34.1867 29.6835 37.245C23.0335 41.4895 0.933594 58.0677 0.933594 91C0.933594 129.961 62.0577 182 78.116 182C100.821 182 126.397 122.635 126.397 91C126.397 73.4695 115.608 60.7002 115.151 60.164C112.354 56.9107 107.5 61.1748 110.284 64.4215ZM54.0558 58.617C50.9916 49.9817 45.2236 38.2427 36.0373 36.101C35.6349 33.0427 34.5148 27.898 31.4956 22.2593C37.6499 20.8975 41.5542 16.9 43.4855 11.0305C46.4596 14.9923 46.0315 19.8022 45.9285 32.5C45.9285 36.7998 52.366 36.7998 52.366 32.5V22.7988C56.9495 24.0305 61.2626 23.6698 65.241 21.97V34.567C60.6736 42.1947 57.2006 50.6642 54.0558 58.617ZM64.7067 14.9305C59.7369 17.979 55.0408 17.0008 52.5559 16.0615C54.0172 11.8268 62.7787 12.3727 64.7067 14.9305ZM38.0007 6.5455C37.019 12.4117 33.8035 15.9477 27.7973 16.2175C26.719 13.0325 32.2424 5.96375 38.0007 6.5455ZM33.826 42.2955C42.2945 43.3127 48.3715 60.7523 50.2223 68.2142C40.595 91.6955 32.355 101.475 7.458 89.0727C8.35603 59.2508 29.4614 44.928 33.826 42.2955Z" fill="#000"/>
<path d="M81.3347 68.2502V86.8889L69.303 108.15L55.678 116.405L47.7148 111.046C46.8876 110.49 45.8512 110.351 44.9113 110.666L35.255 113.916C31.2026 115.281 33.2691 121.449 37.2925 120.081L45.4553 117.335L51.9153 121.683L49.247 132.46C48.217 136.624 54.4549 138.219 55.4945 134.04L58.3914 122.346L68.4661 116.243V149.5C68.4661 153.8 74.9036 153.8 74.9036 149.5V131.346L85.5029 142.048C88.4835 145.09 93.0702 140.504 90.0478 137.452L74.8972 122.155V111.365L85.8377 92.0337L93.7912 96.0474L91.0553 109.863C90.2216 114.095 96.5304 115.391 97.364 111.14L99.4047 100.844L104.809 106.301C107.828 109.337 112.37 104.741 109.36 101.702L99.7041 91.9524C98.3297 90.9222 92.9608 88.4392 87.7722 85.7417V68.2502C87.7722 63.9505 81.3347 63.9505 81.3347 68.2502Z" fill="#000"/>
</svg>
