<svg width="202" height="206" viewBox="0 0 202 206" fill="none" xmlns="http://www.w3.org/2000/svg">
<path d="M198.633 106.433C194.846 106.433 191.347 107.714 188.533 109.874V92.7C188.533 87.0204 184.003 82.4 178.433 82.4C177.122 82.4 175.865 82.6584 174.711 83.1244C173.545 78.7555 169.616 75.5333 164.967 75.5333C160.318 75.5333 156.389 78.7555 155.222 83.1244C154.068 82.6584 152.812 82.4 151.5 82.4C146.851 82.4 142.922 85.6222 141.755 89.9911C140.601 89.525 139.345 89.2667 138.033 89.2667C132.464 89.2667 127.933 93.8871 127.933 99.5667V108.903L121.2 107.184V93.7811C129.147 89.9138 134.667 81.6618 134.667 72.1V68.6667C142.094 68.6667 148.133 62.5073 148.133 54.9333C148.133 47.3594 142.094 41.2 134.667 41.2V24.0333C134.667 10.7828 124.093 0 111.1 0H90.9C77.9068 0 67.3333 10.7828 67.3333 24.0333V41.2C59.9065 41.2 53.8667 47.3594 53.8667 54.9333C53.8667 62.5073 59.9065 68.6667 67.3333 68.6667V72.1C67.3333 81.6614 72.8526 89.9134 80.8 93.7811V107.184L74.0667 108.903V99.5667C74.0667 93.8871 69.536 89.2667 63.9667 89.2667C62.6549 89.2667 61.3987 89.525 60.2448 89.9911C59.0778 85.6222 55.1489 82.4 50.5 82.4C49.1883 82.4 47.9321 82.6584 46.7781 83.1244C45.6112 78.7555 41.6823 75.5333 37.0333 75.5333C32.3844 75.5333 28.4555 78.7555 27.2885 83.1244C26.1346 82.6584 24.8784 82.4 23.5667 82.4C17.9974 82.4 13.4667 87.0204 13.4667 92.7V109.874C10.6526 107.714 7.15417 106.433 3.36667 106.433C1.50574 106.433 0 107.969 0 109.867V133.9C0 134.812 0.355183 135.684 0.986433 136.327L13.4667 149.055V185.4C13.4667 187.298 14.9724 188.833 16.8333 188.833V206H23.5667V188.833H63.9667V206H70.7V188.833C72.5609 188.833 74.0667 187.298 74.0667 185.4V115.979L84.5744 113.3H117.426L127.933 115.979V185.4C127.933 187.298 129.439 188.833 131.3 188.833V206H138.033V188.833H178.433V206H185.167V188.833C187.028 188.833 188.533 187.298 188.533 185.4V149.055L201.014 136.327C201.645 135.684 202 134.812 202 133.9V109.867C202 107.969 200.494 106.433 198.633 106.433ZM134.667 48.0667C138.378 48.0667 141.4 51.1481 141.4 54.9333C141.4 58.7186 138.378 61.8 134.667 61.8V48.0667ZM67.3333 61.8C63.6216 61.8 60.6 58.7186 60.6 54.9333C60.6 51.1481 63.6216 48.0667 67.3333 48.0667V61.8ZM67.3333 181.967H20.2V147.633C20.2 146.721 19.8448 145.85 19.2136 145.206L6.73333 132.479V113.887C10.6526 115.306 13.4667 119.124 13.4667 123.6V127.034C13.4667 128.932 14.9724 130.467 16.8333 130.467C18.6943 130.467 20.2 128.932 20.2 127.034V92.7004C20.2 90.8061 21.7091 89.2671 23.5667 89.2671C25.4242 89.2671 26.9333 90.8061 26.9333 92.7004V113.3C26.9333 115.198 28.4391 116.734 30.3 116.734C32.1609 116.734 33.6667 115.198 33.6667 113.3V85.8338C33.6667 83.9394 35.1758 82.4004 37.0333 82.4004C38.8909 82.4004 40.4 83.9394 40.4 85.8338V113.3C40.4 115.198 41.9057 116.734 43.7667 116.734C45.6276 116.734 47.1333 115.198 47.1333 113.3V92.7004C47.1333 90.8061 48.6424 89.2671 50.5 89.2671C52.3576 89.2671 53.8667 90.8061 53.8667 92.7004V113.3C53.8667 115.198 55.3724 116.734 57.2333 116.734C59.0943 116.734 60.6 115.198 60.6 113.3V99.5671C60.6 97.6728 62.1091 96.1338 63.9667 96.1338C65.8242 96.1338 67.3333 97.6728 67.3333 99.5671V181.967ZM74.0667 24.0333C74.0667 14.5681 81.6185 6.86667 90.9 6.86667H111.1C120.381 6.86667 127.933 14.5681 127.933 24.0333V41.2H74.0667V24.0333ZM74.0667 48.0667H127.933V60.952L101.73 55.0136C101.25 54.9063 100.75 54.9063 100.27 55.0136L74.0667 60.952V48.0667ZM114.467 106.433H87.5333V95.8591C88.6359 96.0209 89.7541 96.1333 90.9 96.1333H111.1C112.246 96.1333 113.364 96.0209 114.467 95.8591V106.433ZM111.1 89.2667H90.9C81.6185 89.2667 74.0667 81.5653 74.0667 72.1V67.986L101 61.8837L127.933 67.986V72.1C127.933 81.5653 120.381 89.2667 111.1 89.2667ZM195.267 132.479L182.786 145.206C182.155 145.85 181.8 146.721 181.8 147.633V181.967H134.667V99.5667C134.667 97.6723 136.176 96.1333 138.033 96.1333C139.891 96.1333 141.4 97.6723 141.4 99.5667V113.3C141.4 115.198 142.906 116.733 144.767 116.733C146.628 116.733 148.133 115.198 148.133 113.3V92.7C148.133 90.8057 149.642 89.2667 151.5 89.2667C153.358 89.2667 154.867 90.8057 154.867 92.7V113.3C154.867 115.198 156.372 116.733 158.233 116.733C160.094 116.733 161.6 115.198 161.6 113.3V85.8333C161.6 83.939 163.109 82.4 164.967 82.4C166.824 82.4 168.333 83.939 168.333 85.8333V113.3C168.333 115.198 169.839 116.733 171.7 116.733C173.561 116.733 175.067 115.198 175.067 113.3V92.7C175.067 90.8057 176.576 89.2667 178.433 89.2667C180.291 89.2667 181.8 90.8057 181.8 92.7V127.033C181.8 128.931 183.306 130.467 185.167 130.467C187.028 130.467 188.533 128.931 188.533 127.033V123.6C188.533 119.124 191.348 115.305 195.267 113.887V132.479Z" fill="#000"/>
</svg>
