<svg xmlns="http://www.w3.org/2000/svg" version="1.1" xmlns:xlink="http://www.w3.org/1999/xlink" xmlns:svgjs="http://svgjs.com/svgjs" width="512" height="512" x="0" y="0" viewBox="0 0 512 512" style="enable-background:new 0 0 512 512" xml:space="preserve" class=""><g><g xmlns="http://www.w3.org/2000/svg"><path d="m220.757 41.288h-50.426c-9.102 0-16.507 7.405-16.507 16.507v62.184h-62.183c-9.103 0-16.508 7.405-16.508 16.508v50.426c0 9.103 7.405 16.508 16.508 16.508h62.184v62.184c0 9.102 7.405 16.507 16.507 16.507h50.426c9.103 0 16.508-7.405 16.508-16.507v-62.185h62.184c9.103 0 16.508-7.405 16.508-16.508v-50.426c0-9.103-7.405-16.508-16.508-16.508h-62.184v-62.183c-.001-9.102-7.407-16.507-16.509-16.507zm78.691 93.691c.831 0 1.508.677 1.508 1.508v50.426c0 .831-.677 1.508-1.508 1.508h-69.684c-4.143 0-7.5 3.357-7.5 7.5v69.684c0 .831-.677 1.507-1.508 1.507h-50.426c-.831 0-1.507-.676-1.507-1.507v-69.685c0-4.143-3.357-7.5-7.5-7.5h-69.682c-.831 0-1.508-.677-1.508-1.508v-50.426c0-.831.677-1.508 1.508-1.508h69.684c4.143 0 7.5-3.357 7.5-7.5v-69.683c0-.831.676-1.507 1.507-1.507h50.426c.831 0 1.508.676 1.508 1.507v69.684c0 4.143 3.357 7.5 7.5 7.5z" fill="#000000" data-original="#000000" class=""></path><path d="m442.311 430.415-18.145-113.981c-1.525-9.576-16.337-7.22-14.814 2.357l17.742 111.449h-69.772v-74.686c0-11.979-9.746-21.726-21.726-21.726-11.979 0-21.725 9.746-21.725 21.726v74.686h-69.772l17.99-113.011c.015-.084.028-.169.041-.254l10.985-69.01c1.337-7.502 7.729-13.152 14.891-13.152h95.183c7.38 0 13.64 5.519 14.88 13.088l5.155 32.385c1.523 9.578 16.338 7.219 14.812-2.357l-5.16-32.418c-2.438-14.89-14.924-25.697-29.688-25.697h-25.943v-194.052c-.001-14.205-11.557-25.762-25.764-25.762h-204.993c-9.697 0-9.697 15 0 15h204.993c5.935 0 10.763 4.828 10.763 10.762v194.051h-54.239c-14.597 0-27.077 10.773-29.675 25.616-.007.038-.013.076-.019.114l-10.006 62.855h-188.698c-5.935 0-10.763-4.828-10.763-10.762v-271.874c.001-5.934 4.829-10.762 10.763-10.762h28.715c9.697 0 9.697-15 0-15h-28.715c-14.206 0-25.762 11.557-25.762 25.762v271.875c0 14.205 11.557 25.762 25.763 25.762h186.311l-17.035 107.016c-20.079 1.881-35.846 18.829-35.846 39.391v34.694c0 4.143 3.357 7.5 7.5 7.5h270.118c4.143 0 7.5-3.357 7.5-7.5v-34.694c-.001-20.562-15.767-37.51-35.845-39.391zm-113.44-74.86c.316-8.904 13.137-8.897 13.45 0v74.186h-13.45zm-120.834 141.445v-19.694h65.624c9.697 0 9.697-15 0-15h-64.453c3.177-9.889 12.463-17.065 23.395-17.065h205.987c10.931 0 20.217 7.176 23.395 17.065h-151.72c-9.697 0-9.697 15 0 15h152.891v19.694z" fill="#000000" data-original="#000000" class=""></path><path d="m328.096 297.34v13.789c0 9.697 15 9.697 15 0v-13.789c0-9.698-15-9.698-15 0z" fill="#000000" data-original="#000000" class=""></path><path d="m301.714 332.83c6.298 0 9.756-8.35 5.304-12.804l-9.751-9.751c-6.859-6.854-17.464 3.749-10.607 10.607l9.751 9.751c1.464 1.465 3.384 2.197 5.303 2.197z" fill="#000000" data-original="#000000" class=""></path><path d="m274.007 351.829c-9.697 0-9.697 15 0 15h13.789c9.697 0 9.697-15 0-15z" fill="#000000" data-original="#000000" class=""></path><path d="m383.796 366.429h13.789c9.697 0 9.697-15 0-15h-13.789c-9.697 0-9.697 15 0 15z" fill="#000000" data-original="#000000" class=""></path><path d="m384.648 309.992c-2.928-2.928-7.677-2.929-10.606.001l-9.75 9.751c-6.857 6.857 3.75 17.462 10.607 10.605l9.75-9.751c2.929-2.928 2.929-7.677-.001-10.606z" fill="#000000" data-original="#000000" class=""></path></g></g></svg>