<svg width="225" height="205" viewBox="0 0 225 205" fill="none" xmlns="http://www.w3.org/2000/svg">
<path d="M139.922 106.195C139.922 102.051 141.68 98.2265 144.844 95.3577C146.25 94.0827 146.25 92.1702 144.844 90.8952C143.437 89.6202 141.328 89.6202 139.922 90.8952C135.351 94.7202 132.891 100.458 132.891 106.195C132.891 109.701 133.945 113.208 135.703 116.395C138.867 121.814 140.625 128.189 140.625 134.245C140.625 140.301 138.867 146.676 135.703 152.095L131.133 159.426C128.672 163.57 129.375 168.989 132.891 172.176C133.594 172.814 133.945 174.089 134.297 175.045L130.078 197.039C129.726 198.633 131.133 200.545 132.891 200.864C135 201.183 136.758 199.908 137.109 198.314C137.109 198.314 141.328 176.001 141.328 175.683C141.328 172.814 140.273 170.264 138.164 168.351C136.758 166.758 136.406 164.526 137.461 162.614L142.031 155.283C145.898 148.908 147.656 141.576 147.656 134.245C147.656 126.914 145.547 119.901 142.031 113.208C140.625 111.295 139.922 108.745 139.922 106.195Z" fill="#000"/>
<path d="M209.531 8.33877C202.148 3.55752 192.656 2.60127 184.219 5.15127L153.281 15.3513C152.227 15.67 150.82 15.67 149.766 15.0325C139.57 7.38252 126.211 3.23877 112.5 3.23877C110.391 3.23877 108.984 4.51377 108.984 6.42627C108.984 8.33877 110.391 9.61377 112.5 9.61377C124.453 9.61377 136.406 13.4388 145.547 20.1325C148.359 22.045 152.227 22.6825 155.742 21.7263L186.68 11.5263C193.008 9.29502 200.039 10.2513 205.664 13.7575C211.289 17.2638 214.453 23.0013 214.453 29.0575C214.453 36.07 210.234 42.7638 202.852 45.9513L195.117 49.4575C191.953 50.7325 193.008 54.2388 193.008 54.2388C193.008 57.745 189.844 60.6138 186.328 61.2513C181.055 61.8888 178.945 56.7888 178.945 54.8763V42.1263C178.945 40.5325 180.703 36.07 185.977 35.7513C188.789 35.7513 191.602 37.345 192.656 39.5763C194.062 43.0825 199.336 40.5325 199.336 40.5325C204.258 38.3013 207.773 34.1575 207.422 29.3763C206.719 17.2638 193.359 15.9888 189.141 17.5825L163.125 26.1888C157.852 27.7825 155.039 32.8825 156.445 37.6638C160.664 52.645 158.203 68.2638 149.414 81.0138C148.359 82.6075 149.062 84.52 150.469 85.4763C151.875 86.4325 154.688 85.4763 155.391 84.52C165.234 70.495 168.047 52.645 163.477 36.07C163.125 34.4763 164.18 32.8825 165.938 32.245L191.953 23.6388C193.711 22.6825 199.688 22.3638 200.391 29.0575C200.391 30.97 199.336 32.5638 197.227 33.8388C194.766 30.6513 190.547 28.7388 186.328 29.0575C175.43 29.695 172.266 38.3013 172.266 41.8075V54.5575C172.266 58.0638 174.727 66.9888 187.031 67.3075C194.414 67.6263 200.391 61.2513 200.391 54.2388L206.016 51.6888C215.508 47.545 221.484 38.9388 221.484 29.0575C221.484 20.77 216.914 13.12 209.531 8.33877Z" fill="#000"/>
<path d="M49.2188 50.7326C47.1094 50.7326 45.7031 52.0076 45.7031 53.9201C45.7031 57.4263 42.8906 60.9326 39.0234 60.9326C32.6953 60.9326 31.6406 56.4701 31.6406 54.5576C31.6406 54.5576 32.6953 50.4138 29.5312 49.1388L21.7969 45.6326C14.7656 42.4451 10.1953 36.0701 10.1953 28.7388C10.1953 22.6826 13.3594 16.9451 18.9844 13.4388C24.6094 9.93259 31.6406 8.97634 37.9688 11.2076L68.9062 21.4076C72.4219 22.6826 76.2891 22.0451 79.1016 19.8138C85.0781 15.9888 91.4062 13.1201 98.4375 11.2076C100.195 10.8888 101.25 8.97634 100.898 7.38259C100.547 5.78884 98.4375 4.83259 96.6797 5.15134C88.9453 7.06384 81.5625 10.5701 75.2344 15.0326C74.1797 15.6701 73.125 15.9888 71.7188 15.3513L40.7812 5.15134C32.3438 2.60134 22.8516 3.55759 15.4688 8.33884C8.08594 13.1201 3.51562 20.7701 3.51562 29.0576C3.51562 38.6201 9.49219 47.2263 18.9844 51.6888L24.6094 54.2388C24.6094 54.2388 24.6094 67.3076 39.375 67.3076C46.7578 67.3076 52.7344 61.2513 52.7344 53.9201C52.7344 52.3263 51.3281 50.7326 49.2188 50.7326Z" fill="#000"/>
<path d="M85.4297 152.732C87.1875 152.095 88.2422 150.182 87.1875 148.589C82.2656 138.07 82.9688 126.276 88.9453 116.395C90.7031 113.207 91.7578 109.701 91.7578 106.195C91.7578 100.139 89.2969 94.7199 84.7266 90.8949C73.125 81.3324 66.4453 66.9886 66.4453 51.6886C66.4453 46.9074 67.1484 42.1261 68.5547 37.6636C69.9609 32.8824 67.1484 27.7824 61.875 26.1886L35.8594 17.5824C29.8828 15.0324 17.5781 17.5824 17.5781 29.3761C17.5781 33.8386 20.7422 38.3011 25.6641 40.5324C25.6641 40.5324 30.5859 43.0824 32.3437 39.5761C33.3984 37.3449 35.8594 35.4324 39.0234 35.7511C44.2969 35.7511 46.0547 40.5324 46.0547 42.1261C46.0547 44.0386 47.4609 45.3136 49.5703 45.3136C51.6797 45.3136 53.0859 44.0386 53.0859 42.1261C53.0859 38.6199 49.5703 29.6949 39.0234 29.3761C34.4531 29.3761 30.5859 31.2886 27.7734 34.1574C25.6641 32.8824 24.6094 30.9699 24.6094 29.0574C24.6094 27.1449 26.7188 21.7261 33.3984 23.3199L59.7656 31.9261C61.5234 32.5636 62.5781 34.1574 62.2266 35.7511C60.8203 40.8511 60.1172 45.9511 60.1172 51.3699C60.1172 68.2636 67.5 84.2011 80.5078 95.0386C83.6719 97.5886 85.4297 101.732 85.4297 105.876C85.4297 108.426 84.7266 110.976 83.3203 113.207C76.2891 125.001 75.5859 138.707 81.2109 150.82C81.5625 152.414 82.9688 153.689 85.4297 152.732Z" fill="#000"/>
<path d="M93.8672 159.745C92.8125 158.152 90.7031 157.514 88.9453 158.47C87.1875 159.427 86.4844 161.339 87.5391 162.614C87.8906 163.252 88.9453 165.802 86.8359 168.352C85.0781 170.583 83.6719 173.133 83.6719 175.683C83.6719 176.002 87.8906 198.314 87.8906 198.314C88.2422 199.908 89.6484 201.183 92.1094 200.864C93.8672 200.545 95.2734 198.952 94.9219 197.039L90.7031 175.364C90.7031 174.089 91.0547 173.133 92.1094 172.495C94.2188 170.264 96.6797 164.845 93.8672 159.745Z" fill="#000"/>
<path d="M106.875 169.308C103.711 154.326 103.008 139.026 105.469 124.045C107.93 109.383 106.172 94.7202 100.547 80.6952C99.8438 79.1014 97.7344 78.1452 95.9766 78.7827C94.2188 79.4202 93.1641 81.3327 93.8672 82.9264C99.1407 95.6764 100.547 109.701 98.4375 123.089C95.9766 138.708 96.3281 154.645 99.8438 170.264L101.953 197.676C101.953 199.27 103.359 200.545 105.82 200.545C107.93 200.545 109.336 198.951 108.984 197.039C108.984 197.358 106.875 169.626 106.875 169.308Z" fill="#000"/>
<path d="M93.5157 73.0452C95.2735 72.4077 96.3282 70.4952 95.625 68.9015L93.1641 63.1639C92.461 61.5702 90.3516 60.6139 88.5938 61.2514C86.836 61.8889 85.7813 63.8014 86.4844 65.3952L88.9453 71.1327C89.6485 72.4077 91.7578 73.6827 93.5157 73.0452Z" fill="#000"/>
<path d="M131.133 83.245L151.172 33.52C151.524 32.245 151.172 30.97 150.469 30.3325C139.922 20.77 126.563 15.9888 112.5 15.9888C98.4376 15.9888 85.0782 21.0888 74.8829 30.0138C73.8282 30.97 73.4766 32.245 74.1798 33.2013L81.9141 52.0075C82.6173 53.6013 84.7266 54.5575 86.4845 53.92C88.2423 53.2825 89.297 51.37 88.5938 49.7763L81.9141 32.8825C90.0001 26.1888 100.899 22.3638 112.5 22.3638C124.102 22.3638 135 26.1888 143.438 33.2013L124.102 81.0138C118.477 94.72 116.719 109.701 119.18 124.364C121.641 139.345 120.938 154.645 117.774 169.626L115.664 197.676C115.664 199.589 117.07 201.183 118.828 201.183C120.234 201.183 122.344 199.908 122.695 198.314L124.805 170.901C128.32 155.283 128.672 139.664 126.211 123.726C124.102 109.701 125.859 95.995 131.133 83.245Z" fill="#000"/>
</svg>
