<svg xmlns="http://www.w3.org/2000/svg" version="1.1" xmlns:xlink="http://www.w3.org/1999/xlink" xmlns:svgjs="http://svgjs.com/svgjs" width="512" height="512" x="0" y="0" viewBox="0 0 512 512" style="enable-background:new 0 0 512 512" xml:space="preserve" class=""><g><g xmlns="http://www.w3.org/2000/svg"><path d="m395.367 332.075c-12.515-16.591-29.693-28.379-49.676-34.089l-13.956-3.987c-2.228-2.549-5.69-3.489-8.866-2.533l-2.723-.778c-6.688-1.91-11.347-8.031-11.347-15.044v-12.143h22.528v4.764c0 4.986 4.056 9.042 9.042 9.042h10.229c12.87 0 23.34-10.471 23.34-23.341v-136.021c0-49.651-31.383-94.274-78.093-111.04-2.884-1.035-5.984-1.125-8.87-.33-2.053-2.144-4.754-3.688-7.829-4.301-19.151-3.815-39.36-2.857-58.331 3.065-3.954 1.234-6.159 5.44-4.925 9.394 1.234 3.955 5.442 6.158 9.394 4.925 16.528-5.159 34.15-5.995 50.821-2.694v18.233c0 12.759-8.645 23.832-21.023 26.926l-3.74.935c-50.448 12.611-85.681 57.737-85.681 109.737v89.51h-4.27c-4.599 0-8.34-3.741-8.34-8.34v-136.02c0-33.206 16.163-64.558 43.235-83.869 3.372-2.405 4.156-7.089 1.751-10.462-2.407-3.373-7.09-4.156-10.462-1.751-31.01 22.12-49.524 58.038-49.524 96.081v136.021c0 12.87 10.471 23.341 23.341 23.341h10.229c4.986 0 9.041-4.056 9.041-9.042v-4.764h22.538v12.143c0 6.968-4.614 13.121-11.348 15.044l-2.734.781c-3.215-.973-6.675.003-8.883 2.538l-13.924 3.978c-19.984 5.71-37.162 17.498-49.678 34.09s-19.131 36.348-19.131 57.132v42.987c0 4.142 3.358 7.5 7.5 7.5s7.5-3.358 7.5-7.5v-42.987c0-33.932 21.797-64.303 53.545-75.407l-12.795 17.913c-2.131 2.984-1.793 7.071.8 9.663l3.778 3.778c-18.611.538-33.586 15.845-33.586 34.584v55.734c0 4.142 3.358 7.5 7.5 7.5h13.806c4.142 0 7.5-3.358 7.5-7.5s-3.358-7.5-7.5-7.5h-6.305v-48.234c0-10.807 8.792-19.599 19.599-19.599h13.971l4.004 4.005-9.421 11.305c-1.316 1.579-1.926 3.63-1.688 5.672s1.305 3.897 2.949 5.13l24.611 18.458v23.263h-6.305c-4.142 0-7.5 3.358-7.5 7.5s3.358 7.5 7.5 7.5h13.806c4.142 0 7.5-3.358 7.5-7.5v-19.513l12.61 9.458v71.583h-54.027v-47.722c0-4.142-3.358-7.5-7.5-7.5s-7.5 3.358-7.5 7.5v47.722h-39.353v-29.804c0-4.142-3.358-7.5-7.5-7.5s-7.5 3.358-7.5 7.5v36.305c0 4.687 3.813 8.5 8.5 8.5h299.995c4.687 0 8.5-3.813 8.5-8.5v-114.295c.002-20.783-6.614-40.538-19.129-57.13zm-56.54 83.286c3.477 0 6.305 2.829 6.305 6.305 0 3.477-2.829 6.305-6.305 6.305s-6.305-2.829-6.305-6.305 2.829-6.305 6.305-6.305zm-82.833-71.766-40.137-56.192c1.542-3.709 2.343-7.697 2.343-11.758v-13.842c11.476 5.516 24.305 8.601 37.793 8.601 13.492 0 26.326-3.087 37.805-8.607v13.847c0 4.058.8 8.043 2.339 11.749zm57.86-95.095c6.852-6.035 12.764-13.126 17.473-21.025v21.025zm45.084-130.555v136.021c0 4.599-3.741 8.34-8.34 8.34h-4.271v-135.86c0-33.649-18.696-63.9-48.793-78.949-3.965-1.982-6.429-5.968-6.429-10.403v-15.951c40.589 14.724 67.833 53.58 67.833 96.802zm-103.959-40.334 3.74-.935c11.38-2.845 20.711-10.066 26.386-19.605 1.705 1.497 3.621 2.793 5.721 3.843 24.981 12.491 40.5 37.601 40.5 65.532-3.575 76.531-2.71 58.012-2.847 60.949-2.433 38.136-34.273 68.008-72.486 68.008s-70.053-29.873-72.486-68.008l-1.834-28.738c5.627-38.959 34.196-71.268 73.306-81.046zm-74.318 149.865c4.709 7.898 10.621 14.989 17.473 21.024h-17.473zm3.316 151.511 8.752-10.502c2.483-2.98 2.285-7.362-.459-10.105l-10.672-10.672c-.169-.187-.348-.366-.535-.535l-11.911-11.911 15.357-21.5 29.166 87.498c-6.073-4.555-22.126-16.594-29.698-22.273zm51.885 42.108c-.049-.649-.184-1.305-.41-1.94l-38.152-114.456c3.282-1.1 6.329-2.738 9.028-4.83l40.449 56.629c-15.501 21.752-14.341 19.722-15.013 21.878-1.224 4.753 2.377 9.374 7.258 9.374h33.927c4.142 0 7.5-3.358 7.5-7.5s-3.358-7.5-7.5-7.5h-19.346c7.684-10.757 45.521-63.73 52.062-72.887 2.696 2.091 5.738 3.728 9.015 4.829l-1.932 5.794c-1.31 3.93.814 8.178 4.743 9.488 3.931 1.307 8.177-.814 9.488-4.743l.49-1.469 15.357 21.5c-22.096 22.096-12.08 12.08-23.118 23.118-2.743 2.743-2.942 7.125-.458 10.105l8.751 10.502-29.698 22.273 17.218-51.655c1.31-3.93-.814-8.177-4.744-9.487-3.928-1.31-8.177.814-9.487 4.744l-24.764 74.293c-.217.609-.357 1.259-.41 1.933 0 .002 0 .005-.001.007-.033.428-.021-2.013-.021 75.904h-40.211c.001-79.987.01-75.493-.021-75.904zm163.635 75.904h-39.364v-47.722c0-4.142-3.358-7.5-7.5-7.5s-7.5 3.358-7.5 7.5v47.722h-54.038v-71.583l40.232-30.174v6.481c-8.059 3.041-13.806 10.833-13.806 19.943 0 11.748 9.558 21.306 21.306 21.306s21.306-9.558 21.306-21.306c0-9.11-5.747-16.902-13.806-19.943v-48.749l11.598-11.598c2.593-2.592 2.931-6.679.8-9.663l-12.802-17.923c31.763 11.095 53.574 41.473 53.574 75.414z" fill="#000000" data-original="#000000" class=""></path><path d="m248.888 195.285h1.913c10.917 0 19.799-8.882 19.799-19.799v-16.125c0-4.142-3.358-7.5-7.5-7.5s-7.5 3.358-7.5 7.5v16.125c0 2.646-2.152 4.798-4.798 4.798h-1.913c-4.142 0-7.5 3.358-7.5 7.5-.001 4.143 3.357 7.501 7.499 7.501z" fill="#000000" data-original="#000000" class=""></path><path d="m255.994 232.236c13.066 0 25.351-5.088 34.59-14.328 2.929-2.929 2.929-7.678 0-10.607s-7.678-2.929-10.607 0c-6.406 6.406-14.923 9.934-23.983 9.934-9.059 0-17.576-3.528-23.982-9.934-2.929-2.93-7.678-2.929-10.607 0s-2.929 7.678 0 10.607c9.239 9.239 21.523 14.328 34.589 14.328z" fill="#000000" data-original="#000000" class=""></path></g></g></svg>