<svg xmlns="http://www.w3.org/2000/svg" version="1.1" xmlns:xlink="http://www.w3.org/1999/xlink" xmlns:svgjs="http://svgjs.com/svgjs" width="512" height="512" x="0" y="0" viewBox="0 0 511.983 511.983" style="enable-background:new 0 0 512 512" xml:space="preserve" class=""><g><g xmlns="http://www.w3.org/2000/svg"><path d="m200.899 208.107c8.64-4.785 17.311-11.09 25.032-19.405 2.818-3.035 2.643-7.781-.393-10.6-3.037-2.818-7.782-2.642-10.6.393-10.418 11.22-23.141 18.205-34.569 22.549 13.895-22.414 16.409-61.125 6.02-83.325-12.437-26.895-43.618-36.478-68.651-36.478-19.917 0-52.506 9.973-78.8 38.08-19.942 21.316-42.789 60.573-38.388 126.538 2.457 36.828 14.976 68.199 36.201 90.72 18.449 19.574 42.815 31.778 68.61 34.364 3.303.332 6.593.495 9.858.495 15.323 0 30.029-3.609 42.205-10.463 16.093-9.057 27.117-23.069 31.881-40.522 8.37-30.663-1.832-52.064-11.864-64.618-1.647-2.06-3.34-3.946-5.03-5.672h27.566c3.948 0 7.16 3.212 7.16 7.16v80.416c0 4.143 3.358 7.5 7.5 7.5s7.5-3.357 7.5-7.5v-80.416c0-12.219-9.941-22.16-22.16-22.16h-41.809c.232-4.914.228-8.924.121-12.079h41.688c18.88 0 34.24 15.359 34.24 34.239v165.92c0 4.143 3.358 7.5 7.5 7.5s7.5-3.357 7.5-7.5v-165.92c0-26.842-21.592-48.721-48.318-49.216zm-26.065 108.396c-8.503 31.151-40.271 42.29-67.977 39.515-22.199-2.226-43.22-12.783-59.19-29.728-18.811-19.958-29.928-48.116-32.15-81.43-2.231-33.448 1.921-80.601 34.375-115.293 21.538-23.022 49.595-33.327 67.847-33.327 20.397 0 45.567 7.296 55.036 27.772v.001c8.735 19.485 8.093 65.064-17.472 81.622-3.601-10.239-12.585-26.261-34.381-32.496-3.983-1.141-8.134 1.166-9.273 5.148s1.166 8.134 5.148 9.273c31.152 12.309 25.451 33.209 26.484 44.262-8.207-2.414-20.68-4.282-36.021-.908-4.045.891-6.603 4.892-5.713 8.938.89 4.045 4.892 6.602 8.937 5.713 21.398-4.709 35.107 3.115 35.791 3.518.027.016.055.026.082.042.15.088.304.171.461.249.021.01.039.025.059.035 1.666.817 40.675 20.501 27.957 67.094z" fill="#000000" data-original="#000000" class=""></path><path d="m214.637 365.4c-4.142 0-7.5 3.357-7.5 7.5v50.343c0 4.143 3.358 7.5 7.5 7.5s7.5-3.357 7.5-7.5v-50.343c0-4.143-3.358-7.5-7.5-7.5z" fill="#000000" data-original="#000000" class=""></path><path d="m479.029 126.17c-2.61-3.213-7.334-3.703-10.551-1.092-3.215 2.612-3.703 7.336-1.092 10.551 22.307 27.456 32.094 64.207 29.09 109.231-2.223 33.313-13.34 61.472-32.15 81.43-15.971 16.944-36.991 27.502-59.19 29.728-38.452 3.857-61.85-17.068-67.976-39.515-13.378-58.096 37.616-78.459 64.35-70.937 4.052.889 8.047-1.669 8.938-5.713.89-4.046-1.668-8.047-5.713-8.938-15.342-3.374-27.815-1.506-36.022.907-.419-20.197 2.387-35.18 26.485-44.262 3.982-1.14 6.287-5.291 5.148-9.273-1.139-3.981-5.287-6.287-9.273-5.148-21.796 6.234-30.78 22.257-34.381 32.496-7.092-3.975-11.768-10.895-14.616-16.659-10.497-21.243-9.655-50.261-2.855-64.964 9.469-20.477 34.638-27.772 55.035-27.772 14.868 0 33.136 6.381 48.865 17.068 3.427 2.328 8.091 1.438 10.418-1.988 2.328-3.426 1.438-8.09-1.988-10.418-18.118-12.312-39.537-19.662-57.295-19.662-25.033 0-56.213 9.583-68.65 36.477-9.616 20.794-8.289 55.014 3.022 77.904.94 1.902 1.945 3.703 2.999 5.424-11.428-4.344-24.151-11.331-34.57-22.551-2.818-3.034-7.563-3.211-10.6-.393-3.035 2.818-3.211 7.564-.393 10.6 7.721 8.315 16.392 14.62 25.032 19.405-26.726.495-48.318 22.374-48.318 49.216v165.92c0 4.143 3.357 7.5 7.5 7.5s7.5-3.357 7.5-7.5v-165.92c0-18.88 15.359-34.239 34.239-34.239h41.688c-.107 3.155-.111 7.165.121 12.079h-41.809c-12.219 0-22.159 9.941-22.159 22.16v165.92c0 4.143 3.357 7.5 7.5 7.5s7.5-3.357 7.5-7.5v-165.92c0-3.948 3.212-7.16 7.159-7.16h27.566c-1.69 1.726-3.384 3.611-5.03 5.672-10.031 12.554-20.233 33.955-11.863 64.618 9.274 35.892 47.293 54.588 83.943 50.49 25.794-2.586 50.16-14.79 68.609-34.364 21.226-22.521 33.744-53.891 36.201-90.72 3.219-48.236-7.99-89.624-32.414-119.688z" fill="#000000" data-original="#000000" class=""></path></g></g></svg>