<svg xmlns="http://www.w3.org/2000/svg" version="1.1" xmlns:xlink="http://www.w3.org/1999/xlink" xmlns:svgjs="http://svgjs.com/svgjs" width="512" height="512" x="0" y="0" viewBox="0 0 32 32" style="enable-background:new 0 0 512 512" xml:space="preserve" class=""><g><path xmlns="http://www.w3.org/2000/svg" d="m5.297 7.224c-.242-.137-.546-.051-.681.19-.658 1.166-.776 2.56-.325 3.825.073.205.265.332.471.332.056 0 .112-.009.168-.029.26-.093.396-.378.303-.639-.354-.991-.261-2.084.254-2.998.136-.24.051-.545-.19-.681z" fill="#000000" data-original="#000000" class=""></path><path xmlns="http://www.w3.org/2000/svg" d="m6.646 5.497c-.232.115-.451.247-.655.393-.225.16-.277.472-.116.697.098.137.251.209.407.209.101 0 .202-.03.29-.093.162-.116.335-.219.518-.31.247-.123.348-.423.225-.67-.123-.248-.423-.35-.669-.226z" fill="#000000" data-original="#000000" class=""></path><path xmlns="http://www.w3.org/2000/svg" d="m23.043 11.615c-1.291-.346-2.639-.169-3.793.498-1.155.667-1.982 1.745-2.328 3.037-.346 1.291-.169 2.639.498 3.793.925 1.602 2.609 2.499 4.339 2.499.848 0 1.706-.215 2.491-.668 1.155-.667 1.981-1.746 2.327-3.037.346-1.292.169-2.639-.498-3.793-.666-1.156-1.744-1.983-3.036-2.329zm2.568 5.862c-.276 1.033-.938 1.896-1.861 2.429-1.91 1.103-4.362.445-5.465-1.464-.533-.924-.674-2.001-.397-3.035.277-1.033.938-1.896 1.862-2.429.614-.355 1.297-.536 1.99-.536.348 0 .698.046 1.044.138 1.033.277 1.896.938 2.43 1.862s.675 2.002.397 3.035z" fill="#000000" data-original="#000000" class=""></path><path xmlns="http://www.w3.org/2000/svg" d="m29.731 26-3.067-5.313c1.754-2.036 2.132-5.039.715-7.494-.429-.743-.986-1.366-1.624-1.864.686-2.612-.238-5.314-2.443-6.966-2.319-1.737-5.367-1.809-7.767-.184-.435.294-.871.606-1.311.921l-.234.166c-.077-.055-.155-.11-.232-.165-.441-.315-.877-.628-1.313-.923-2.443-1.653-5.528-1.554-7.858.253-2.313 1.793-3.172 4.729-2.19 7.479 0 0 4.779 13.376 4.799 13.424.138.321.337.621.581.867.515.516 1.234.799 1.958.803.599.004 1.201-.182 1.683-.539.529-.39.906-.981 1.045-1.624 0-.001 1.48-6.867 1.48-6.867l1.575 6.87c.282 1.232 1.283 2.076 2.548 2.151 1.288.078 2.362-.648 2.787-1.839l.794-2.222c.035.001.07.007.105.007.494 0 .991-.065 1.481-.181l3.025 5.24c.37.641 1.044 1 1.736 1 .339 0 .682-.086.996-.267.955-.553 1.283-1.778.731-2.733zm-3.217-12.308c1.516 2.626.612 5.997-2.014 7.513-2.627 1.515-5.996.613-7.513-2.013-.735-1.272-.93-2.754-.55-4.173s1.291-2.605 2.563-3.34c.864-.499 1.808-.736 2.74-.736 1.903 0 3.755.987 4.774 2.749zm-6.592 11.128c-.332.927-1.152 1.22-1.786 1.177-.646-.038-1.414-.419-1.633-1.376l-1.575-6.87c-.102-.442-.474-.738-.927-.738-.454 0-.827.297-.928.739l-1.575 6.866c-.221.962-.989 1.345-1.634 1.383-.642.043-1.454-.252-1.786-1.181l-4.729-13.245c-1.012-2.835.298-5.141 1.861-6.353 1.982-1.538 4.606-1.622 6.685-.216.429.29.858.597 1.292.908 2.044 1.464 4.159 2.978 6.765 3.167.273.014.515-.186.535-.462.02-.275-.188-.515-.463-.535-1.888-.137-3.558-1.108-5.155-2.208.415-.297.826-.591 1.236-.869 2.478-1.679 5.038-1.02 6.607.156 1.439 1.078 2.672 3.08 2.151 5.584-1.924-1.047-4.33-1.107-6.363.067-1.504.868-2.579 2.27-3.029 3.947-.449 1.677-.219 3.429.649 4.933.999 1.731 2.682 2.816 4.512 3.138zm5.078-2.748c.336-.194.643-.418.93-.659l.437.757-1.733 1-.413-.715c.264-.109.525-.236.779-.383zm3.5 5.794c-.479.277-1.09.11-1.366-.366l-2-3.464 1.733-1 2 3.464c.275.477.111 1.09-.367 1.366z" fill="#000000" data-original="#000000" class=""></path></g></svg>