<svg xmlns="http://www.w3.org/2000/svg" version="1.1" xmlns:xlink="http://www.w3.org/1999/xlink" xmlns:svgjs="http://svgjs.com/svgjs" width="512" height="512" x="0" y="0" viewBox="0 0 512 512" style="enable-background:new 0 0 512 512" xml:space="preserve" class=""><g><g xmlns="http://www.w3.org/2000/svg"><path d="m445.174 190.466c4.01 0 7.261-3.25 7.261-7.261v-61.348h1.518c9.342 0 16.942-7.6 16.942-16.942v-19.846c0-9.342-7.6-16.942-16.942-16.942h-71.362l-53.44-37.717c.693-2.21 1.068-4.56 1.068-6.995 0-12.911-10.505-23.415-23.416-23.415s-23.416 10.504-23.416 23.416c0 2.687.461 5.268 1.298 7.673l-52.48 37.039h-72.552c-9.342 0-16.942 7.6-16.942 16.942v19.846c0 9.342 7.6 16.942 16.942 16.942h1.518v98.337c-20.356 7.037-40.992 19.912-61.685 38.523-26.101 23.476-45.493 50.089-54.729 63.864-4.993 7.445-4.855 17.379.343 24.719 25.208 33.325 61.413 73.054 116.071 90.93v20.041h-1.518c-9.342 0-16.942 7.6-16.942 16.942v19.846c0 9.342 7.6 16.942 16.942 16.942h72.05c4.01 0 7.261-3.25 7.261-7.261 0-4.01-3.25-7.261-7.261-7.261h-72.05c-1.335 0-2.42-1.085-2.42-2.42v-19.846c0-1.335 1.085-2.42 2.42-2.42h294.3c1.335 0 2.42 1.085 2.42 2.42v19.846c0 1.335-1.085 2.42-2.42 2.42h-189.854c-4.01 0-7.261 3.25-7.261 7.261 0 4.01 3.25 7.261 7.261 7.261h189.854c9.342 0 16.942-7.6 16.942-16.942v-19.846c0-9.342-7.6-16.942-16.942-16.942h-1.518v-243.937c0-4.01-3.25-7.261-7.261-7.261s-7.261 3.25-7.261 7.261v243.936h-262.22v-16.52c72.97 14.274 127.017-37.572 159.121-75.582 7.943-9.405 13.221-16.429 14.945-18.865 5.198-7.343 5.336-17.28.343-24.727 0-.001 0-.001 0-.001-9.238-13.775-28.632-40.39-54.732-63.864-31.103-27.974-62.079-42.985-92.169-44.691-9.266-.524-18.339.217-27.509 2.14v-94.305h262.221v61.348c0 4.011 3.251 7.262 7.261 7.262zm-267.512 40.145c26.177-6.288 53.566 1.343 76.126 15.061 18.273 10.881 34.715 25.55 48.335 39.971-29.14-13.151-65.367-24.236-104.692-24.236-39.323 0-75.552 11.086-104.693 24.237 22.397-23.638 51.687-47.59 84.924-55.033zm-120.843 100.057c2.692-4.015 6.554-9.555 11.424-15.989 19.936-11.716 46.896-24.737 77.804-32.309-4.24 4.181-8.022 8.918-11.231 14.167-2.092 3.421-1.014 7.89 2.406 9.983 3.421 2.093 7.89 1.015 9.983-2.406 10.793-17.649 29.569-28.185 50.227-28.185 32.437 0 58.827 26.39 58.827 58.827s-26.39 58.827-58.827 58.827c-33.836.134-61.089-29.06-58.696-62.795.266-4.002-2.763-7.46-6.764-7.725-3.989-.283-7.459 2.763-7.725 6.764-.108 1.627-.163 3.285-.163 4.928 0 20.507 8.47 39.065 22.082 52.389-30.085-7.362-56.335-19.84-75.754-31.056-5.213-6.092-9.736-11.921-13.459-17.18-1.767-2.494-1.819-5.727-.134-8.24zm223.691 66.656c-51.617 41.168-113.099 41.78-165.031.833-4.383-3.213-8.035-7.604-12.659-9.96 24.815 12.646 59.634 20.861 94.609 20.861 34.974 0 67.502-8.215 94.61-20.861-3.642 3.065-7.495 6.129-11.529 9.127zm57.398-58.411c-3.724 5.259-8.249 11.09-13.463 17.183-19.423 11.216-45.678 23.707-75.766 31.066 13.623-13.325 22.101-31.89 22.101-52.406 0-20.524-8.484-39.096-22.117-52.422 30.973 7.567 57.989 20.611 77.958 32.347 4.868 6.431 8.729 11.969 11.42 15.983 1.687 2.515 1.634 5.753-.133 8.249zm-31.105-324.392c4.905 0 8.894 3.99 8.894 8.894s-3.99 8.894-8.894 8.894-8.894-3.99-8.894-8.894 3.989-8.894 8.894-8.894zm-13.34 28.123c7.65 5.678 19.817 5.478 27.271-.42l36.96 25.904h-100.591zm-136.23 62.271v-19.846c0-1.335 1.085-2.42 2.42-2.42h294.3c1.335 0 2.42 1.085 2.42 2.42v19.846c0 1.335-1.085 2.42-2.42 2.42h-294.3c-1.335 0-2.42-1.085-2.42-2.42z" fill="#000000" data-original="#000000" class=""></path><path d="m197.431 360.685c14.297 0 25.93-11.632 25.93-25.931 0-5.557-1.763-10.707-4.751-14.933.713.147 1.451.225 2.208.225 6.012 0 10.886-4.874 10.886-10.886s-4.874-10.886-10.886-10.886-10.886 4.874-10.886 10.886c0 1.098.166 2.156.468 3.155-3.818-2.215-8.246-3.491-12.968-3.491-14.298 0-25.931 11.632-25.931 25.93 0 14.299 11.632 25.931 25.93 25.931zm0-37.338c6.291 0 11.408 5.117 11.408 11.408s-5.117 11.409-11.408 11.409-11.409-5.118-11.409-11.409 5.119-11.408 11.409-11.408z" fill="#000000" data-original="#000000" class=""></path><path d="m304.987 186.429c-5.764 0-11.038-2.926-14.106-7.826-2.127-3.399-6.607-4.43-10.007-2.3-3.399 2.128-4.428 6.608-2.3 10.007 5.74 9.168 15.614 14.641 26.414 14.641 17.178 0 31.154-13.976 31.154-31.154s-13.976-31.153-31.154-31.153c-10.799 0-20.673 5.473-26.414 14.641-2.128 3.399-1.099 7.879 2.3 10.007 3.398 2.13 7.881 1.1 10.007-2.3 3.069-4.9 8.342-7.826 14.106-7.826 9.171 0 16.632 7.461 16.632 16.632 0 9.17-7.461 16.631-16.632 16.631z" fill="#000000" data-original="#000000" class=""></path><path d="m389.947 153.165c5.764 0 11.038 2.926 14.106 7.826 2.127 3.399 6.608 4.431 10.007 2.3 3.399-2.128 4.428-6.608 2.3-10.007-5.74-9.168-15.614-14.641-26.414-14.641-17.178 0-31.154 13.975-31.154 31.153s13.976 31.154 31.154 31.154c10.799 0 20.673-5.473 26.414-14.641 2.128-3.399 1.099-7.879-2.3-10.007-3.397-2.128-7.88-1.099-10.007 2.3-3.069 4.9-8.342 7.826-14.106 7.826-9.171 0-16.632-7.461-16.632-16.632-.001-9.17 7.46-16.631 16.632-16.631z" fill="#000000" data-original="#000000" class=""></path><path d="m227.292 153.165c5.764 0 11.039 2.926 14.107 7.826 2.13 3.4 6.61 4.427 10.007 2.3 3.399-2.129 4.428-6.609 2.3-10.007-5.741-9.168-15.616-14.641-26.415-14.641-17.178 0-31.153 13.975-31.153 31.153s13.975 31.154 31.153 31.154c10.798 0 20.673-5.473 26.415-14.641 2.128-3.398 1.099-7.878-2.3-10.007-3.396-2.129-7.878-1.1-10.007 2.3-3.069 4.9-8.343 7.826-14.107 7.826-9.17 0-16.632-7.461-16.632-16.632 0-9.17 7.461-16.631 16.632-16.631z" fill="#000000" data-original="#000000" class=""></path><path d="m369.792 239.58c0-13.465-10.954-24.421-24.42-24.421-6.341 0-12.35 2.421-16.92 6.818-2.89 2.78-2.979 7.377-.199 10.266 2.78 2.891 7.377 2.982 10.266.199 1.852-1.781 4.286-2.762 6.853-2.762 5.458 0 9.898 4.441 9.898 9.899s-4.441 9.898-9.898 9.898c-2.568 0-5.001-.981-6.854-2.762-2.89-2.779-7.486-2.689-10.266.201-2.779 2.89-2.69 7.487.201 10.266 4.571 4.395 10.579 6.816 16.919 6.816 13.466.002 24.42-10.952 24.42-24.418z" fill="#000000" data-original="#000000" class=""></path><path d="m353.401 410.866c4.01 0 7.261-3.25 7.261-7.261s-3.25-7.261-7.261-7.261c-11.099 0-20.13 9.03-20.13 20.13s9.03 20.13 20.13 20.13c4.01 0 7.261-3.25 7.261-7.261s-3.25-7.261-7.261-7.261c-3.092 0-5.608-2.517-5.608-5.609 0-3.09 2.516-5.607 5.608-5.607z" fill="#000000" data-original="#000000" class=""></path><path d="m393.739 360.881c0 3.092-2.517 5.608-5.609 5.608s-5.609-2.516-5.609-5.608c0-4.01-3.25-7.261-7.261-7.261-4.01 0-7.261 3.25-7.261 7.261 0 11.099 9.03 20.13 20.13 20.13s20.13-9.031 20.13-20.13c0-4.01-3.25-7.261-7.261-7.261s-7.259 3.251-7.259 7.261z" fill="#000000" data-original="#000000" class=""></path><path d="m388.13 273c-13.465 0-24.421 10.954-24.421 24.42 0 6.339 2.421 12.348 6.817 16.919 1.426 1.482 3.329 2.228 5.235 2.228 1.81 0 3.624-.673 5.031-2.027 2.891-2.779 2.981-7.376.201-10.266-1.782-1.853-2.763-4.287-2.763-6.854 0-5.458 4.441-9.898 9.899-9.898s9.898 4.441 9.898 9.898c0 2.567-.981 5.001-2.762 6.854-2.779 2.891-2.689 7.488.201 10.266 2.891 2.779 7.489 2.689 10.266-.201 4.396-4.572 6.816-10.581 6.816-16.919.002-13.465-10.952-24.42-24.418-24.42z" fill="#000000" data-original="#000000" class=""></path></g></g></svg>