<svg xmlns="http://www.w3.org/2000/svg" version="1.1" xmlns:xlink="http://www.w3.org/1999/xlink" xmlns:svgjs="http://svgjs.com/svgjs" width="512" height="512" x="0" y="0" viewBox="0 0 512 512" style="enable-background:new 0 0 512 512" xml:space="preserve" class=""><g><g xmlns="http://www.w3.org/2000/svg"><path d="m489.5 0h-30c-45.491 0-82.5 37.01-82.5 82.5v75c0 47.654-36.815 86.87-83.5 90.694v-165.694c0-20.678 16.822-37.5 37.5-37.5 12.407 0 22.5-10.094 22.5-22.5s-10.093-22.5-22.5-22.5h-150c-12.407 0-22.5 10.094-22.5 22.5s10.093 22.5 22.5 22.5c20.678 0 37.5 16.822 37.5 37.5v165.694c-46.685-3.824-83.5-43.04-83.5-90.694v-45c0-4.143-3.358-7.5-7.5-7.5s-7.5 3.357-7.5 7.5v45c0 58.448 47.551 106 106 106 4.142 0 7.5-3.357 7.5-7.5v-173.5c0-28.948-23.551-52.5-52.5-52.5-4.136 0-7.5-3.364-7.5-7.5s3.364-7.5 7.5-7.5h150c4.136 0 7.5 3.364 7.5 7.5s-3.364 7.5-7.5 7.5c-28.949 0-52.5 23.552-52.5 52.5v173.5c0 4.143 3.358 7.5 7.5 7.5 58.449 0 106-47.552 106-106v-75c0-37.22 30.28-67.5 67.5-67.5h30c4.136 0 7.5 3.364 7.5 7.5s-3.364 7.5-7.5 7.5c-28.949 0-52.5 23.552-52.5 52.5v75c0 83.262-67.738 151-151 151-4.142 0-7.5 3.357-7.5 7.5v113.5c0 28.948 23.551 52.5 52.5 52.5 4.136 0 7.5 3.364 7.5 7.5s-3.364 7.5-7.5 7.5h-150c-4.136 0-7.5-3.364-7.5-7.5s3.364-7.5 7.5-7.5c28.949 0 52.5-23.552 52.5-52.5v-113.5c0-4.143-3.358-7.5-7.5-7.5-83.262 0-151-67.738-151-151v-75c0-28.948-23.551-52.5-52.5-52.5-4.136 0-7.5-3.364-7.5-7.5s3.364-7.5 7.5-7.5h30c37.22 0 67.5 30.28 67.5 67.5 0 4.143 3.358 7.5 7.5 7.5s7.5-3.357 7.5-7.5c0-45.49-37.009-82.5-82.5-82.5h-30c-12.407 0-22.5 10.094-22.5 22.5s10.093 22.5 22.5 22.5c20.678 0 37.5 16.822 37.5 37.5v75c0 89.019 70.435 161.896 158.5 165.833v106.167c0 20.678-16.822 37.5-37.5 37.5-12.407 0-22.5 10.094-22.5 22.5s10.093 22.5 22.5 22.5h150c12.407 0 22.5-10.094 22.5-22.5s-10.093-22.5-22.5-22.5c-20.678 0-37.5-16.822-37.5-37.5v-106.167c88.065-3.937 158.5-76.814 158.5-165.833v-75c0-20.678 16.822-37.5 37.5-37.5 12.407 0 22.5-10.094 22.5-22.5s-10.093-22.5-22.5-22.5z" fill="#000000" data-original="#000000" class=""></path></g></g></svg>