<svg width="218" height="218" viewBox="0 0 218 218" fill="none" xmlns="http://www.w3.org/2000/svg">
<g clip-path="url(#clip0_346_34)">
<path d="M167.72 78.4097L154.71 65.4V59.7742C154.71 57.6645 153.303 56.2581 151.194 56.2581H119.549V46.4129C126.229 42.5452 130.097 35.8645 130.097 28.129V21.0968C130.097 9.49355 120.603 0 109 0C97.397 0 87.9035 9.49355 87.9035 21.0968V28.129C87.9035 35.5129 91.7712 42.5452 98.4519 46.4129V56.2581H66.8067C64.697 56.2581 63.2906 57.6645 63.2906 59.7742V65.4L50.2809 78.4097C49.5777 79.1129 49.2261 79.8161 49.2261 80.871V123.065C49.2261 125.174 50.6325 126.581 52.7422 126.581H63.2906V151.194C63.2906 153.303 64.697 154.71 66.8067 154.71H77.7067L80.8712 214.835C80.8712 216.594 82.6293 218 84.3874 218H101.968C104.078 218 105.484 216.594 105.484 214.484V154.71H112.516V214.484C112.516 216.594 113.923 218 116.033 218H133.613C135.371 218 137.129 216.594 137.129 214.835L140.294 154.71H151.194C153.303 154.71 154.71 153.303 154.71 151.194V126.581H165.258C167.368 126.581 168.774 125.174 168.774 123.065V80.871C168.774 79.8161 168.423 79.1129 167.72 78.4097ZM63.2906 119.548H56.2583V112.516H63.2906V119.548ZM63.2906 105.484H56.2583V82.2774L63.2906 75.2452V105.484ZM94.9357 28.129V21.0968C94.9357 13.3613 101.265 7.03226 109 7.03226C116.736 7.03226 123.065 13.3613 123.065 21.0968V28.129C123.065 35.8645 116.736 42.1936 109 42.1936C101.265 42.1936 94.9357 35.8645 94.9357 28.129ZM112.516 48.8742V56.2581H105.484V48.8742C107.945 49.2258 110.055 49.2258 112.516 48.8742ZM98.4519 210.968H87.5519L84.3874 154.71H98.4519V210.968ZM92.4745 147.677L85.7938 140.645L92.1228 134.316L107.594 140.645C108.297 140.997 109.352 140.997 110.055 140.645L125.526 134.316L131.855 140.645L124.823 147.677H92.4745ZM130.449 210.968H119.549V154.71H133.262L130.449 210.968ZM147.678 147.677H135.02L139.591 143.106C140.997 141.7 140.997 139.59 139.591 138.184L129.042 127.635C127.987 126.581 126.581 126.229 125.174 126.932L112.516 131.855V126.229C120.603 125.174 126.581 121.306 126.581 116.032C126.581 113.923 125.526 112.165 124.12 110.406C129.745 109 133.613 106.187 133.613 101.968C133.262 99.1548 131.855 96.6936 129.042 95.2871C135.723 92.8258 140.645 89.3097 140.645 84.3871C140.645 78.0581 132.91 73.1355 120.252 71.0258L119.197 78.0581C129.394 79.4645 133.965 82.9806 133.965 84.3871C133.965 86.1452 126.581 90.7161 112.868 91.4194V70.3226H105.836V91.4194C92.1228 90.7161 84.739 86.4968 84.739 84.3871C84.739 82.9806 89.3099 79.4645 99.1551 78.0581L98.1003 71.0258C85.0906 73.1355 77.3551 78.0581 77.3551 84.3871C77.3551 89.3097 81.9261 93.1774 88.9583 95.2871C86.497 96.3419 84.739 98.8032 84.3874 101.968C84.3874 106.187 88.2551 109 93.8809 110.406C92.4745 111.813 91.4196 113.923 91.4196 116.032C91.4196 121.306 97.397 125.526 105.484 126.229V131.855L92.8261 126.581C91.4196 126.229 90.0132 126.229 88.9583 127.284L78.4099 137.832C77.0035 139.239 77.0035 141.348 78.4099 142.755L82.9809 147.326H70.3228V63.2903H147.678V147.677ZM119.549 116.032C119.549 116.735 117.087 118.494 112.516 119.197V112.868C117.087 113.571 119.549 115.329 119.549 116.032ZM112.516 105.484V98.4516C117.439 98.4516 122.01 99.5065 126.229 101.968C122.01 104.077 117.439 105.484 112.516 105.484ZM91.7712 101.968C95.9906 99.8581 100.562 98.4516 105.484 98.4516V105.484C100.562 105.484 95.9906 104.429 91.7712 101.968ZM105.484 112.868V119.197C100.913 118.494 98.4519 116.735 98.4519 116.032C98.4519 115.329 100.913 113.571 105.484 112.868ZM161.742 119.548H154.71V112.516H161.742V119.548ZM161.742 105.484H154.71V75.2452L161.742 82.2774V105.484Z" fill="#000"/>
</g>
<defs>
<clipPath id="clip0_346_34">
<rect width="218" height="218" fill="white"/>
</clipPath>
</defs>
</svg>
