<svg xmlns="http://www.w3.org/2000/svg" version="1.1" xmlns:xlink="http://www.w3.org/1999/xlink" xmlns:svgjs="http://svgjs.com/svgjs" width="512" height="512" x="0" y="0" viewBox="0 0 512 512" style="enable-background:new 0 0 512 512" xml:space="preserve" class=""><g><g xmlns="http://www.w3.org/2000/svg"><path d="m480.916 299.265c17.14 0 31.084-13.944 31.084-31.085s-13.944-31.085-31.084-31.085h-107.121c-3.23-5.383-9.152-10.496-18.849-14.102l-40.073-14.877c-1.863-1.399-6.844-6.62-11.466-11.802 9.51-28.345 3.278-57.09-2.818-82.837 10.802-8.815 18.422-20.95 20.756-34.257 1.392-8.054 1.092-16.227-.838-24.037 7.8-2.755 13.159-7.551 16.214-14.502 6.106-13.869 6.57-24.325 1.38-31.076-4.281-5.567-11.42-7.615-21.221-6.087-.001 0-.001 0-.002 0-12.933 2.021-25.857.146-37.263-1.509-10.015-1.452-19.472-2.824-27.74-1.425-17.682 2.984-31.193 12.507-39.073 27.537-3.469 6.616-6.534 19.734-7.239 31.177-.779 12.644.997 23.35.997 23.352 3.381 14.392 10.332 25.598 20.658 33.346-18.005 16.487-27.828 41.95-27.828 55.831v65.268h-168.306c-17.14 0-31.084 13.944-31.084 31.085s13.944 31.085 31.084 31.085h5.767v47.692c0 4.143 3.357 7.5 7.5 7.5s7.5-3.357 7.5-7.5v-47.692h25.337v120.728h-25.337v-38.423c0-4.143-3.357-7.5-7.5-7.5s-7.5 3.357-7.5 7.5v38.786c-12.241 2.056-21.601 12.732-21.601 25.562v13.181c0 7.027 5.717 12.745 12.744 12.745h73.05c7.027 0 12.744-5.718 12.744-12.745v-13.181c0-12.822-9.357-23.492-21.601-25.558v-121.095h115.572c-1.38 3.159-2.751 6.321-4.099 9.432-6.688 15.436-13.604 31.397-21.452 46.449-9.502 18.259-19.198 32.826-29.633 44.522-5.075 4.427-8.645 9.396-8.44 14.167.194 4.562 3.172 7.701 6.949 11.684l41.82 43.946.798.845c2.485 2.643 5.536 5.889 10.234 5.888.333 0 .675-.016 1.025-.05 5.026-.489 8.156-4.511 10.325-7.966 9.992-15.957-6.142-46.457-6.833-47.748-.454-.847-.738-1.442-.915-1.85.473-.585 41.105-48.865 46.22-56.152 17.574 31.667 24.185 92.88 24.268 93.967.371 4.87.691 9.077 4.33 12.154 3.421 2.893 7.674 2.893 13.059 2.893h60.661l1.127.005c.321.003.648.005.981.005 3.706 0 8.039-.288 11.049-4.14 3.118-3.991 2.352-9.045 1.339-12.991-4.641-18.187-37.876-27.55-39.296-27.942-.932-.256-1.559-.46-1.975-.613-.102-.754-.198-1.821-.28-2.738-.062-.682-.128-1.415-.206-2.202-3.631-36.695-10.551-87.223-29.061-121.564h54.139c4.143 0 7.5-3.357 7.5-7.5s-3.357-7.5-7.5-7.5h-322.809c-8.869 0-16.084-7.216-16.084-16.085s7.215-16.085 16.084-16.085h253.554c3.212 1.565 6.421 2.309 10.627 3.188 1.903.398 56.315 13.81 56.532 13.843 1.126.177 2.248.263 3.362.263 9.757-.001 18.701-6.576 21.188-16.089.103-.394.19-.797.269-1.205h104.299c8.869 0 16.084 7.216 16.084 16.085s-7.215 16.085-16.084 16.085h-92.382c-4.143 0-7.5 3.357-7.5 7.5s3.357 7.5 7.5 7.5h31.278v47.692c0 4.143 3.357 7.5 7.5 7.5s7.5-3.357 7.5-7.5v-47.692h25.309v120.728h-25.309v-38.423c0-4.143-3.357-7.5-7.5-7.5s-7.5 3.357-7.5 7.5v38.785c-12.257 2.054-21.629 12.731-21.629 25.563v13.181c0 7.027 5.717 12.745 12.744 12.745h73.078c7.027 0 12.744-5.718 12.744-12.745v-13.181c0-12.832-9.372-23.509-21.629-25.563v-121.09h5.797zm-382.128 146.653v10.926h-68.538v-10.926c0-6.024 4.889-10.926 10.897-10.926h46.715c6.025 0 10.926 4.902 10.926 10.926zm99.261-39.301c-5.424 6.153-8.32 10.631-2.815 20.902 5.505 10.272 9.664 24.749 8.018 31.059l-41.292-43.391c-.446-.471-1.063-1.121-1.645-1.756.317-.348.649-.708.969-1.055.732-.793 1.555-1.685 2.476-2.712 9.101-10.203 17.619-22.308 25.864-36.773l22.49 17.079c-3.865 4.711-13.638 16.163-14.065 16.647zm29.351-35.345c-2.306 2.646-4.299 4.937-5.91 6.984l-24.674-18.737c7.544-14.744 14.186-30.037 20.608-44.861 1.282-2.96 2.586-5.966 3.897-8.967 8.942 11.315 17.44 25.198 25.018 40.544-5.653 9.784-13.244 18.503-18.939 25.037zm127.93 85.174h-59.914c-.596 0-1.48 0-2.342-.015-.031-.388-.062-.786-.091-1.172-.089-1.169-.19-2.499-.335-4.017-1.351-14.169-4.103-29.068-7.955-44.014l27.046-4.466c.837 6.813 1.541 13.382 2.151 19.548.074.741.136 1.428.193 2.064.737 8.191 1.995 13.388 13.213 16.469 11.252 3.106 24.617 10.071 28.034 15.603zm-45.6-68.553-29.125 4.809c-5.127-16.822-11.542-33.422-18.86-48.821-.159-.422-.357-.829-.59-1.217-7.797-16.233-16.58-31.079-25.875-43.399h47.08c14.751 22.587 22.68 56.91 27.37 88.628zm-89.026-312.307c-2.086-18.822-1.194-54.327 33.671-60.212 5.944-1.006 13.89.146 23.087 1.479 12.454 1.807 26.569 3.851 41.732 1.484 4.883-.763 6.746.062 7.015.409.623.811 1.37 5.471-3.219 15.895-5.189 11.806-30.37 8.554-54.724 5.408l-4.354-.561c-13.226-1.692-20.738 11.365-27.358 22.89-2.877 5.008-5.853 10.186-8.704 13.079-1.528 1.552-4.684.968-7.146.129zm4.925 15.82c4.526-.119 9.124-1.578 12.907-5.422 4.208-4.268 7.673-10.3 11.024-16.133 3.419-5.95 9.113-15.915 12.449-15.483l4.335.558c14.266 1.842 27.767 3.575 39.352 2.947 1.644 6.076 1.959 12.473.87 18.773-3.27 18.644-19.386 30.812-33.885 34.598-5.718 1.474-11.45 1.783-16.571.895-7.341-1.278-13.671-3.75-18.825-7.354-4.848-3.38-8.74-7.862-11.656-13.379zm-11.239 145.689v-65.268c0-11.974 10.432-35.688 27.033-48.164 3.793 1.407 7.83 2.506 12.119 3.253 2.803.486 5.662.729 8.568.729 4.673 0 9.468-.628 14.337-1.882 3.714-.969 7.295-2.273 10.711-3.863 4.673 20.159 8.538 40.704 4.447 60.682l-27.561-32.292c-2.69-3.151-7.422-3.524-10.574-.836-3.15 2.689-3.524 7.424-.836 10.574l31.897 37.372-18.525 17.626-21.397-23.247c-2.806-3.047-7.551-3.245-10.598-.439-3.048 2.806-3.244 7.55-.439 10.598l26.562 28.857c.017.019.036.036.054.054.011.012.02.025.031.037.022.023.047.043.07.066.066.067.13.137.199.202l6.255 5.941zm147.446 12.411c-.724 2.772-3.685 5.282-7.444 4.839l-48.854-12.123c-2.858-.713-5.267-1.216-7.201-1.621-6.742-1.41-8.146-1.703-13.835-7.323-.034-.034-.069-.068-.105-.102l-7.858-7.464 17.841-16.976c10.582 11.695 13.418 12.753 14.726 13.239l40.618 15.08c8.638 3.212 13.28 7.983 12.112 12.451zm119.914 196.412v10.926h-68.566v-10.926c0-6.024 4.901-10.926 10.926-10.926h46.715c6.024 0 10.925 4.902 10.925 10.926z" fill="#000000" data-original="#000000" class=""></path></g></g></svg>